<svg width="40" height="40" viewBox="0 0 40 40" fill="none" xmlns="http://www.w3.org/2000/svg">
<circle cx="20" cy="20" r="20" fill="#F2653E"/>
<path d="M20 20C22.875 20 25.2083 17.9062 25.2083 15.3125C25.2083 12.7187 22.875 10.625 20 10.625V20Z" stroke="white" stroke-width="2" stroke-linecap="round" stroke-linejoin="round"/>
<path d="M20 20C20 22.875 22.0937 25.2083 24.6875 25.2083C27.2812 25.2083 29.375 22.875 29.375 20H20Z" stroke="white" stroke-width="2" stroke-linecap="round" stroke-linejoin="round"/>
<path d="M20.0001 20C17.1251 20 14.7917 22.0937 14.7917 24.6875C14.7917 27.2812 17.1251 29.375 20.0001 29.375V20Z" stroke="white" stroke-width="2" stroke-linecap="round" stroke-linejoin="round"/>
<path d="M20 20.0001C20 17.1251 17.9062 14.7917 15.3125 14.7917C12.7187 14.7917 10.625 17.1251 10.625 20.0001H20Z" stroke="white" stroke-width="2" stroke-linecap="round" stroke-linejoin="round"/>
</svg>
